{
  "accessors": [
    {
      "bufferView": 2,
      "componentType": 5126,
      "count": 65532,
      "max": [
        4.897563934326172,
        3.2708659172058105,
        14.882404327392578
      ],
      "min": [
        -4.897564888000488,
        -3.1515400409698486,
        -0.0064039998687803745
      ],
      "type": "VEC3"
    },
    {
      "bufferView": 2,
      "byteOffset": 786384,
      "componentType": 5126,
      "count": 65532,
      "max": [
        0.9999415874481201,
        0.9999865293502808,
        0.9999958276748657
      ],
      "min": [
        -0.9999712705612183,
        -0.9999949932098389,
        -0.9999887943267822
      ],
      "type": "VEC3"
    },
    {
      "bufferView": 1,
      "componentType": 5126,
      "count": 65532,
      "max": [
        0.9989989995956421,
        0.9989989995956421
      ],
      "min": [
        0.0010010000551119447,
        0.0010010000551119447
      ],
      "type": "VEC2"
    },
    {
      "bufferView": 0,
      "componentType": 5125,
      "count": 174744,
      "type": "SCALAR"
    },
    {
      "bufferView": 2,
      "byteOffset": 1572768,
      "componentType": 5126,
      "count": 7830,
      "max": [
        0.0,
        3.1266400814056396,
        14.882404327392578
      ],
      "min": [
        -3.2615809440612793,
        -2.9942610263824463,
        2.0371620655059814
      ],
      "type": "VEC3"
    },
    {
      "bufferView": 2,
      "byteOffset": 1666728,
      "componentType": 5126,
      "count": 7830,
      "max": [
        0.9988064169883728,
        0.998573362827301,
        0.9999958276748657
      ],
      "min": [
        -0.9997133612632751,
        -0.9999549388885498,
        -0.99927818775177
      ],
      "type": "VEC3"
    },
    {
      "bufferView": 1,
      "byteOffset": 524256,
      "componentType": 5126,
      "count": 7830,
      "max": [
        0.9989989995956421,
        0.856141984462738
      ],
      "min": [
        0.14385800063610077,
        0.03671500086784363
      ],
      "type": "VEC2"
    },
    {
      "bufferView": 0,
      "byteOffset": 698976,
      "componentType": 5125,
      "count": 20880,
      "type": "SCALAR"
    }
  ],
  "asset": {
    "extras": {
      "author": "NickBob (https://sketchfab.com/nickbob)",
      "license": "CC-BY-4.0 (http://creativecommons.org/licenses/by/4.0/)",
      "source": "https://sketchfab.com/3d-models/sponge-on-the-run-patrick-base-model-textured-9254a020fb76477ab4be69ee353e3fcb",
      "title": "Sponge On The Run: Patrick Base Model (Textured)"
    },
    "generator": "Sketchfab-17.17.0",
    "version": "2.0"
  },
  "bufferViews": [
    {
      "buffer": 0,
      "byteLength": 782496,
      "name": "floatBufferViews",
      "target": 34963
    },
    {
      "buffer": 0,
      "byteLength": 586896,
      "byteOffset": 782496,
      "byteStride": 8,
      "name": "floatBufferViews",
      "target": 34962
    },
    {
      "buffer": 0,
      "byteLength": 1760688,
      "byteOffset": 1369392,
      "byteStride": 12,
      "name": "floatBufferViews",
      "target": 34962
    }
  ],
  "buffers": [
    {
      "byteLength": 3130080,
      "uri": "scene.bin"
    }
  ],
  "images": [
    {
      "uri": "textures/patrick_baseColor.png"
    }
  ],
  "materials": [
    {
      "doubleSided": true,
      "name": "patrick",
      "pbrMetallicRoughness": {
        "baseColorTexture": {
          "index": 0
        },
        "metallicFactor": 0.0,
        "roughnessFactor": 0.6
      }
    }
  ],
  "meshes": [
    {
      "name": "Object_0",
      "primitives": [
        {
          "attributes": {
            "NORMAL": 1,
            "POSITION": 0,
            "TEXCOORD_0": 2
          },
          "indices": 3,
          "material": 0,
          "mode": 4
        }
      ]
    },
    {
      "name": "Object_1",
      "primitives": [
        {
          "attributes": {
            "NORMAL": 5,
            "POSITION": 4,
            "TEXCOORD_0": 6
          },
          "indices": 7,
          "material": 0,
          "mode": 4
        }
      ]
    }
  ],
  "nodes": [
    {
      "children": [
        1
      ],
      "matrix": [
        1.0,
        0.0,
        0.0,
        0.0,
        0.0,
        2.220446049250313e-16,
        -1.0,
        0.0,
        0.0,
        1.0,
        2.220446049250313e-16,
        0.0,
        0.0,
        0.0,
        0.0,
        1.0
      ],
      "name": "Sketchfab_model"
    },
    {
      "children": [
        2,
        3
      ],
      "name": "patrick.obj.cleaner.materialmerger.gles"
    },
    {
      "mesh": 0,
      "name": "Object_2"
    },
    {
      "mesh": 1,
      "name": "Object_3"
    }
  ],
  "samplers": [
    {
      "magFilter": 9729,
      "minFilter": 9729,
      "wrapS": 10497,
      "wrapT": 10497
    }
  ],
  "scene": 0,
  "scenes": [
    {
      "name": "Sketchfab_Scene",
      "nodes": [
        0
      ]
    }
  ],
  "textures": [
    {
      "sampler": 0,
      "source": 0
    }
  ]
}
